<?xml version="1.0" encoding="UTF-8"?>
<svg xmlns="http://www.w3.org/2000/svg" version="1.1" viewBox="0 0 100 100">

  <path style="fill:#C8A95F;" d="m 10,30 80,0 q 5,0 5,5 l 0,55 q 0,5 -5,5 l -80,0 q -5,0 -5,-5 l 0,-55 q 0,-5 5,-5 z"/>
  <path style="fill:#777;" d="m 62,4 -1,7 -7,3 -6,-4 -6,7 3,5 -3,8 -6,1 0,9 7,1 2,6 -4,7 7,7 6,-4 7,3 1,7 10,0 1,-7 6,-3 6,4 8,-7 -5,-7 2,-5 9,-1 0,-10 -8,-1 -3,-7 4,-6 -6,-7 -6,4 -8,-3 -1,-7 z m 4,16 c 8,0 16,7 16,15 0,9 -7,15 -16,15 -9,0 -15,-5 -15,-15 0,-8 6,-15 15,-15 z"/>
  <path style="fill:#D0CEA9;fill-opacity:0.7" d="m 10,30 37,0 q 3,0 3,3 q 0,3 3,3 l 37,0 q 5,0 5,5 l 0,49 q 0,5 -5,5 l -80,0 q -5,0 -5,-5 l 0,-55 q 0,-5 5,-5 z"/>

</svg>
