<?xml version="1.0" encoding="UTF-8"?>
<svg xmlns="http://www.w3.org/2000/svg" version="1.1" viewBox="0 0 100 100">

  <path style="fill:#35728E;" d="m 50,5 a 32,32 0 1 0 0.1,0 z"/>
  <path style="fill:none;stroke:#ddd;stroke-width:1;stroke-linecap:butt;" d="m 50,5 0,64 a 37.33,37.33 0 0 1 0,-64 a 37.33,37.33 0 0 1 0,64 m -32,-32 64,0 m -8,-21.33 a 42.66,42.66 0 0 1 -48,0 m 0,42.66 a 42.66,42.66 0 0 1 48,0"/>
  
  <path style="fill:#cccccc;" d="m 2.1,92 c 0,-5 0,-16 0,-20 0,-1 0,-3 2,-3 4,0 29,0 31,0 2,0 2,2 2,4 0,4 0,17 0,19 0,1 0,2 -3,2 -2,0 -28,0 -30,0 -2,0 -2,-2 -2,-2 z"/>
  <path style="fill:#333333;" d="m 4,71 31,0 0,21 -31,0 z"/>
 
  <path style="fill:#cccccc;" d="m 63,92 c 0,-5 0,-16 0,-20 0,-1 0,-3 2,-3 4,0 29,0 31,0 2,0 2,2 2,4 0,4 0,17 0,19 0,1 0,2 -3,2 -2,0 -28,0 -30,0 -2,0 -2,-2 -2,-2 z"/>
  <path style="fill:#333333;" d="m 65,71 31,0 0,21 -31,0 z"/>

  <path style="fill:#222222" d="m 37,83 8.25,0 a 5,5 0 0 1 3,-3 l 0,-11 3.5,0 0,11 a 5,5 0 0 1 3,3 l 8.25,0 0,4 -8.5,0 a 5,5 0 0 1 -9,0 l -8.5,0 z"/>
  

</svg>
