<?xml version="1.0" encoding="UTF-8"?>
<svg xmlns="http://www.w3.org/2000/svg" version="1.1" viewBox="0 0 100 100">

  <path style="fill:#35728E;" d="m 34,3 a 32,32 0 1 0 0.1,0 z"/>
  <path style="fill:none;stroke:#ddd;stroke-width:1;stroke-linecap:butt;" d="m 34,3 0,64 a 37.33,37.33 0 0 1 0,-64 a 37.33,37.33 0 0 1 0,64 m -32,-32 64,0 m -8,-21.33 a 42.66,42.66 0 0 1 -48,0 m 0,42.66 a 42.66,42.66 0 0 1 48,0"/>
  
  <path style="fill:none;stroke:#eeeeee;stroke-width:5" d="m 35,67 c 0,0 -3,-9 -3,-42 19,8 27,-1 32,-8"/>
  <path style="fill:#D59B4B;fill-opacity:0.7;fill-rule:nonzero;stroke:#333333;stroke-width:4" d="M 64,19 C 59,25 52,34 33,26 34,66 33,82 64,96 96,82 97,69 96,26 77,34 68,25 64,19 z"/>

</svg>
